<svg width="16" height="16" viewBox="0 0 16 16" fill="none" xmlns="http://www.w3.org/2000/svg">
<path d="M3.69332 13.0134C3.28666 13.0134 2.90666 12.8734 2.63332 12.6134C2.28666 12.2867 2.11999 11.7934 2.17999 11.26L2.42666 9.10003C2.47332 8.69336 2.71999 8.15336 3.00666 7.86003L8.47999 2.0667C9.84666 0.62003 11.2733 0.58003 12.72 1.9467C14.1667 3.31336 14.2067 4.74003 12.84 6.1867L7.36666 11.98C7.08666 12.28 6.56666 12.56 6.15999 12.6267L4.01332 12.9934C3.89999 13 3.79999 13.0134 3.69332 13.0134ZM10.62 1.94003C10.1067 1.94003 9.65999 2.26003 9.20666 2.74003L3.73332 8.54003C3.59999 8.68003 3.44666 9.01336 3.41999 9.2067L3.17332 11.3667C3.14666 11.5867 3.19999 11.7667 3.31999 11.88C3.43999 11.9934 3.61999 12.0334 3.83999 12L5.98666 11.6334C6.17999 11.6 6.49999 11.4267 6.63332 11.2867L12.1067 5.49336C12.9333 4.61336 13.2333 3.80003 12.0267 2.6667C11.4933 2.15336 11.0333 1.94003 10.62 1.94003Z" fill="#8F959E"/>
<path d="M11.56 7.29998C11.5467 7.29998 11.5267 7.29998 11.5134 7.29998C9.43336 7.09331 7.76003 5.51331 7.44003 3.44665C7.40003 3.17331 7.58669 2.91998 7.86003 2.87331C8.13336 2.83331 8.38669 3.01998 8.43336 3.29331C8.68669 4.90665 9.99336 6.14665 11.62 6.30665C11.8934 6.33331 12.0934 6.57998 12.0667 6.85331C12.0334 7.10665 11.8134 7.29998 11.56 7.29998Z" fill="#8F959E"/>
<path d="M14 15.1667H2C1.72667 15.1667 1.5 14.94 1.5 14.6667C1.5 14.3933 1.72667 14.1667 2 14.1667H14C14.2733 14.1667 14.5 14.3933 14.5 14.6667C14.5 14.94 14.2733 15.1667 14 15.1667Z" fill="#8F959E"/>
</svg>
